<?xml version="1.0" encoding="UTF-8"?>
<svg width="24px" height="24px" viewBox="0 0 24 24" version="1.1" xmlns="http://www.w3.org/2000/svg" xmlns:xlink="http://www.w3.org/1999/xlink">
    <title>icon_swap_sel</title>
    <g id="页面-1" stroke="none" stroke-width="1" fill="none" fill-rule="evenodd">
        <g id="语言专家_智能翻译" transform="translate(-612.000000, -354.000000)" fill-rule="nonzero">
            <g id="编组-4" transform="translate(476.000000, 296.000000)">
                <g id="icon_swap_sel" transform="translate(136.000000, 58.000000)">
                    <rect id="矩形" fill="#000000" opacity="0" x="0" y="0" width="24" height="24"></rect>
                    <path d="M19.8726562,13.875 L3.5625,13.875 C3.459375,13.875 3.375,13.959375 3.375,14.0625 L3.375,15.46875 C3.375,15.571875 3.459375,15.65625 3.5625,15.65625 L17.746875,15.65625 L14.3648437,19.9453125 C14.26875,20.0671875 14.3554687,20.25 14.5125,20.25 L16.2117187,20.25 C16.3265625,20.25 16.434375,20.1984375 16.5070312,20.1070312 L20.4632812,15.0890625 C20.85,14.596875 20.5007812,13.875 19.8726562,13.875 L19.8726562,13.875 Z M20.4375,8.34375 L6.253125,8.34375 L9.63515625,4.0546875 C9.73125,3.9328125 9.64453125,3.75 9.4875,3.75 L7.78828125,3.75 C7.6734375,3.75 7.565625,3.8015625 7.49296875,3.89296875 L3.53671875,8.9109375 C3.15,9.403125 3.49921875,10.125 4.125,10.125 L20.4375,10.125 C20.540625,10.125 20.625,10.040625 20.625,9.9375 L20.625,8.53125 C20.625,8.428125 20.540625,8.34375 20.4375,8.34375 Z" id="形状" fill="#333333"></path>
                </g>
            </g>
        </g>
    </g>
</svg>